v 0 0.09025001 -0.505
v -0.025 -0.10975 -0.48
v -0.025 -0.10975 -0.53
v 0 0.09025001 -0.505
v 0.025 -0.10975 -0.48
v -0.025 -0.10975 -0.48
v 0 0.09025001 -0.505
v 0.025 -0.10975 -0.53
v 0.025 -0.10975 -0.48
v 0 0.09025001 -0.505
v -0.025 -0.10975 -0.53
v 0.025 -0.10975 -0.53

vn -0.8944272 0.4472136 0
vn -0.8944272 0.4472136 0
vn -0.8944272 0.4472136 0
vn 0 0.4472136 0.8944272
vn 0 0.4472136 0.8944272
vn 0 0.4472136 0.8944272
vn 0.8944272 0.4472136 0
vn 0.8944272 0.4472136 0
vn 0.8944272 0.4472136 0
vn 0 0.4472136 -0.8944272
vn 0 0.4472136 -0.8944272
vn 0 0.4472136 -0.8944272

vt 0.5 0.5
vt 1 1
vt 1 0
vt 0.5 0.5
vt 0 1
vt 1 1
vt 0.5 0.5
vt 0 0
vt 0 1
vt 0.5 0.5
vt 1 0
vt 0 0

g Mortarboard_Tassel2

f 2/2/2 1/1/1 3/3/3
f 5/5/5 4/4/4 6/6/6
f 8/8/8 7/7/7 9/9/9
f 11/11/11 10/10/10 12/12/12
