v 5.4 0 -4.5
v -5.4 0 -7.2
v 5.4 0 -7.2
v -5.4 0 -4.5
v -1.8 0 4.5
v -2.7 0 3.6
v -1.8 0 3.6
v -2.7 0 4.5
v 2.7 0 4.5
v 1.8 0 3.6
v 2.7 0 3.6
v 1.8 0 4.5
v 5.4 0.05 -4.5
v -5.4 0 -4.5
v 5.4 0 -4.5
v -5.4 0.05 -4.5
v 2.7 0.05 3.6
v 2.7 0 4.5
v 2.7 0 3.6
v 2.7 0.05 4.5
v 1.8 0 3.6
v 1.8 0.05 4.5
v 1.8 0.05 3.6
v 1.8 0 4.5
v 2.7 0.05 4.5
v 1.8 0 4.5
v 2.7 0 4.5
v 1.8 0.05 4.5
v 1.8 0 3.6
v 2.7 0.05 3.6
v 2.7 0 3.6
v 1.8 0.05 3.6
v -1.8 0.05 3.6
v -1.8 0 4.5
v -1.8 0 3.6
v -1.8 0.05 4.5
v -2.7 0 3.6
v -2.7 0.05 4.5
v -2.7 0.05 3.6
v -2.7 0 4.5
v -1.8 0.05 4.5
v -2.7 0 4.5
v -1.8 0 4.5
v -2.7 0.05 4.5
v -2.7 0 3.6
v -1.8 0.05 3.6
v -1.8 0 3.6
v -2.7 0.05 3.6


vn 0 1 0
vn 0 1 0
vn 0 1 0
vn 0 1 0
vn 0 1 0
vn 0 1 0
vn 0 1 0
vn 0 1 0
vn 0 1 0
vn 0 1 0
vn 0 1 0
vn 0 1 0
vn 0 0 -1
vn 0 0 -1
vn 0 0 -1
vn 0 0 -1
vn -1 0 -0
vn -1 0 -0
vn -1 0 -0
vn -1 0 -0
vn 1 0 0
vn 1 0 0
vn 1 0 0
vn 1 0 0
vn 0 0 -1
vn 0 0 -1
vn 0 0 -1
vn 0 0 -1
vn -0 0 1
vn -0 0 1
vn -0 0 1
vn -0 0 1
vn -1 0 -0
vn -1 0 -0
vn -1 0 -0
vn -1 0 -0
vn 1 0 0
vn 1 0 0
vn 1 0 0
vn 1 0 0
vn 0 0 -1
vn 0 0 -1
vn 0 0 -1
vn 0 0 -1
vn -0 0 1
vn -0 0 1
vn -0 0 1
vn -0 0 1


# 01_Floor-2.7x10.8
vt 0 0
vt 2.7 10.8
vt 2.7 0
vt 0 10.8
# 02_Floor-0.9x0.9
vt 0 0
vt 0.9 0.9
vt 0.9 0
vt 0 0.9
# 03_Floor-0.9x0.9
vt 0 0
vt 0.9 0.9
vt 0.9 0
vt 0 0.9
# 04_TatamiEdge-2.7x0.05
vt 0 0
vt 0.0375 6
vt 0.0375 0
vt 0 6
# 05_TatamiEdge-0.9x0.05
vt 0 0.0375
vt 0.5 0
vt 0 0
vt 0.5 0.0375
# 06_TatamiEdge-0.9x0.05
vt 0.5 0
vt 0 0.0375
vt 0.5 0.0375
vt 0 0
# 07_TatamiEdge-0.9x0.05
vt 0 0.0375
vt 0.5 0
vt 0 0
vt 0.5 0.0375
# 08_TatamiEdge-0.9x0.05
vt 0 0
vt 0.5 0.0375
vt 0.5 0
vt 0 0.0375
# 09_TatamiEdge-0.9x0.05
vt 0 0.0375
vt 0.5 0
vt 0 0
vt 0.5 0.0375
# 10_TatamiEdge-0.9x0.05
vt 0.5 0
vt 0 0.0375
vt 0.5 0.0375
vt 0 0
# 11_TatamiEdge-0.9x0.05
vt 0 0.0375
vt 0.5 0
vt 0 0
vt 0.5 0.0375
# 12_TatamiEdge-0.9x0.05
vt 0 0
vt 0.5 0.0375
vt 0.5 0
vt 0 0.0375


g DojoFloor
# 01_Floor-2.7x10.8
f 2/2/2 1/1/1 3/3/3
f 4/4/4 1/1/1 2/2/2
# 02_Floor-0.9x0.9
f 6/6/6 5/5/5 7/7/7
f 8/8/8 5/5/5 6/6/6
# 03_Floor-0.9x0.9
f 10/10/10 9/9/9 11/11/11
f 12/12/12 9/9/9 10/10/10

g DojoTatamiEdge
# 04_TatamiEdge-2.7x0.05
f 14/14/14 13/13/13 15/15/15
f 16/16/16 13/13/13 14/14/14
# 05_TatamiEdge-0.9x0.05
f 18/18/18 17/17/17 19/19/19
f 20/20/20 17/17/17 18/18/18
# 06_TatamiEdge-0.9x0.05
f 22/22/22 21/21/21 23/23/23
f 24/24/24 21/21/21 22/22/22
# 07_TatamiEdge-0.9x0.05
f 26/26/26 25/25/25 27/27/27
f 28/28/28 25/25/25 26/26/26
# 08_TatamiEdge-0.9x0.05
f 30/30/30 29/29/29 31/31/31
f 32/32/32 29/29/29 30/30/30
# 09_TatamiEdge-0.9x0.05
f 34/34/34 33/33/33 35/35/35
f 36/36/36 33/33/33 34/34/34
# 10_TatamiEdge-0.9x0.05
f 38/38/38 37/37/37 39/39/39
f 40/40/40 37/37/37 38/38/38
# 11_TatamiEdge-0.9x0.05
f 42/42/42 41/41/41 43/43/43
f 44/44/44 41/41/41 42/42/42
# 12_TatamiEdge-0.9x0.05
f 46/46/46 45/45/45 47/47/47
f 48/48/48 45/45/45 46/46/46
