
v -0.5 0 -0.15
v -0.52 0.46 -0.15
v -0.52 0 -0.15
v -0.5 0.46 -0.15
v -0.5 0 -0.15
v -0.5 0.46 0.15
v -0.5 0.46 -0.15
v -0.5 0 0.15
v -0.52 0 0.15
v -0.5 0.46 0.15
v -0.5 0 0.15
v -0.52 0.46 0.15
v -0.5 0.46 -0.15
v -0.52 0.46 0.15
v -0.52 0.46 -0.15
v -0.5 0.46 0.15
v -0.5 0 -0.15
v -0.52 0 0.15
v -0.5 0 0.15
v -0.52 0 -0.15
v -0.52 0 -0.15
v -0.52 0.46 0.15
v -0.52 0 0.15
v -0.52 0.46 -0.15
v 0.52 0 -0.15
v 0.5 0.46 -0.15
v 0.5 0 -0.15
v 0.52 0.46 -0.15
v 0.52 0 -0.15
v 0.52 0.46 0.15
v 0.52 0.46 -0.15
v 0.52 0 0.15
v 0.5 0 0.15
v 0.52 0.46 0.15
v 0.52 0 0.15
v 0.5 0.46 0.15
v 0.52 0.46 -0.15
v 0.5 0.46 0.15
v 0.5 0.46 -0.15
v 0.52 0.46 0.15
v 0.52 0 -0.15
v 0.5 0 0.15
v 0.52 0 0.15
v 0.5 0 -0.15
v 0.5 0 -0.15
v 0.5 0.46 0.15
v 0.5 0 0.15
v 0.5 0.46 -0.15
v -0.5 0.14 -0.15
v 0.5 0.16 -0.15
v -0.5 0.16 -0.15
v 0.5 0.14 -0.15
v -0.5 0.14 -0.15
v 0.5 0.14 0.15
v 0.5 0.14 -0.15
v -0.5 0.14 0.15
v -0.5 0.16 0.15
v 0.5 0.14 0.15
v -0.5 0.14 0.15
v 0.5 0.16 0.15
v -0.5 0.16 -0.15
v 0.5 0.16 0.15
v -0.5 0.16 0.15
v 0.5 0.16 -0.15
v -0.5 0.29 -0.15
v 0.5 0.31 -0.15
v -0.5 0.31 -0.15
v 0.5 0.29 -0.15
v -0.5 0.29 -0.15
v 0.5 0.29 0.15
v 0.5 0.29 -0.15
v -0.5 0.29 0.15
v -0.5 0.31 0.15
v 0.5 0.29 0.15
v -0.5 0.29 0.15
v 0.5 0.31 0.15
v -0.5 0.31 -0.15
v 0.5 0.31 0.15
v -0.5 0.31 0.15
v 0.5 0.31 -0.15
v -0.5 0.44 -0.15
v 0.5 0.46 -0.15
v -0.5 0.46 -0.15
v 0.5 0.44 -0.15
v -0.5 0.44 -0.15
v 0.5 0.44 0.15
v 0.5 0.44 -0.15
v -0.5 0.44 0.15
v -0.5 0.46 0.15
v 0.5 0.44 0.15
v -0.5 0.44 0.15
v 0.5 0.46 0.15
v -0.5 0.46 -0.15
v 0.5 0.46 0.15
v -0.5 0.46 0.15
v 0.5 0.46 -0.15


vn -0 0 -1
vn -0 0 -1
vn -0 0 -1
vn -0 0 -1
vn 1 -0 -0
vn 1 -0 -0
vn 1 -0 -0
vn 1 -0 -0
vn 0 0 1
vn 0 0 1
vn 0 0 1
vn 0 0 1
vn 0 1 0
vn 0 1 0
vn 0 1 0
vn 0 1 0
vn -0 -1 0
vn -0 -1 0
vn -0 -1 0
vn -0 -1 0
vn -1 0 0
vn -1 0 0
vn -1 0 0
vn -1 0 0
vn -0 0 -1
vn -0 0 -1
vn -0 0 -1
vn -0 0 -1
vn 1 -0 -0
vn 1 -0 -0
vn 1 -0 -0
vn 1 -0 -0
vn 0 0 1
vn 0 0 1
vn 0 0 1
vn 0 0 1
vn 0 1 0
vn 0 1 0
vn 0 1 0
vn 0 1 0
vn -0 -1 0
vn -0 -1 0
vn -0 -1 0
vn -0 -1 0
vn -1 0 0
vn -1 0 0
vn -1 0 0
vn -1 0 0
vn 0 0 -1
vn 0 0 -1
vn 0 0 -1
vn 0 0 -1
vn 0 -1 0
vn 0 -1 0
vn 0 -1 0
vn 0 -1 0
vn 0 0 1
vn 0 0 1
vn 0 0 1
vn 0 0 1
vn 0 1 0
vn 0 1 0
vn 0 1 0
vn 0 1 0
vn 0 0 -1
vn 0 0 -1
vn 0 0 -1
vn 0 0 -1
vn 0 -1 0
vn 0 -1 0
vn 0 -1 0
vn 0 -1 0
vn 0 0 1
vn 0 0 1
vn 0 0 1
vn 0 0 1
vn 0 1 0
vn 0 1 0
vn 0 1 0
vn 0 1 0
vn 0 0 -1
vn 0 0 -1
vn 0 0 -1
vn 0 0 -1
vn 0 -1 0
vn 0 -1 0
vn 0 -1 0
vn 0 -1 0
vn 0 0 1
vn 0 0 1
vn 0 0 1
vn 0 0 1
vn 0 1 0
vn 0 1 0
vn 0 1 0
vn 0 1 0


# Leg1_Back
vt 0.46 0
vt 0 0.02
vt 0.46 0.02
vt 0 0

# Leg1_Down
vt 0.46 0.3
vt 0 0
vt 0 0.3
vt 0.46 0

# Leg1_Front
vt 0 0.02
vt 0.46 0
vt 0 0
vt 0.46 0.02

# Leg1_Left
vt 0.3 0
vt 0 0.02
vt 0.3 0.02
vt 0 0

# Leg1_Right
vt 0 0
vt 0.3 0.02
vt 0.3 0
vt 0 0.02

# Leg1_Up
vt 0.46 0
vt 0 0.3
vt 0.46 0.3
vt 0 0

# Leg2_Back
vt 0.46 0
vt 0 0.02
vt 0.46 0.02
vt 0 0

# Leg2_Down
vt 0.46 0.3
vt 0 0
vt 0 0.3
vt 0.46 0

# Leg2_Front
vt 0 0.02
vt 0.46 0
vt 0 0
vt 0.46 0.02

# Leg2_Left
vt 0.3 0
vt 0 0.02
vt 0.3 0.02
vt 0 0

# Leg2_Right
vt 0 0
vt 0.3 0.02
vt 0.3 0
vt 0 0.02

# Leg2_Up
vt 0.46 0
vt 0 0.3
vt 0.46 0.3
vt 0 0

# Stand1_Back
vt 1 0
vt 0 0.02
vt 1 0.02
vt 0 0

# Stand1_Down
vt 1 0.3
vt 0 0
vt 0 0.3
vt 1 0

# Stand1_Front
vt 0 0.02
vt 1 0
vt 0 0
vt 1 0.02

# Stand1_Up
vt 1 0
vt 0 0.3
vt 1 0.3
vt 0 0

# Stand2_Back
vt 1 0
vt 0 0.02
vt 1 0.02
vt 0 0

# Stand2_Down
vt 1 0.3
vt 0 0
vt 0 0.3
vt 1 0

# Stand2_Front
vt 0 0.02
vt 1 0
vt 0 0
vt 1 0.02

# Stand2_Up
vt 1 0
vt 0 0.3
vt 1 0.3
vt 0 0

# Stand3_Back
vt 1 0
vt 0 0.02
vt 1 0.02
vt 0 0

# Stand3_Down
vt 1 0.3
vt 0 0
vt 0 0.3
vt 1 0

# Stand3_Front
vt 0 0.02
vt 1 0
vt 0 0
vt 1 0.02

# Stand3_Up
vt 1 0
vt 0 0.3
vt 1 0.3
vt 0 0


g ShoeRack

f 2/2/2 1/1/1 3/3/3
f 4/4/4 1/1/1 2/2/2
f 6/6/6 5/5/5 7/7/7
f 8/8/8 5/5/5 6/6/6
f 10/10/10 9/9/9 11/11/11
f 12/12/12 9/9/9 10/10/10
f 14/14/14 13/13/13 15/15/15
f 16/16/16 13/13/13 14/14/14
f 18/18/18 17/17/17 19/19/19
f 20/20/20 17/17/17 18/18/18
f 22/22/22 21/21/21 23/23/23
f 24/24/24 21/21/21 22/22/22
f 26/26/26 25/25/25 27/27/27
f 28/28/28 25/25/25 26/26/26
f 30/30/30 29/29/29 31/31/31
f 32/32/32 29/29/29 30/30/30
f 34/34/34 33/33/33 35/35/35
f 36/36/36 33/33/33 34/34/34
f 38/38/38 37/37/37 39/39/39
f 40/40/40 37/37/37 38/38/38
f 42/42/42 41/41/41 43/43/43
f 44/44/44 41/41/41 42/42/42
f 46/46/46 45/45/45 47/47/47
f 48/48/48 45/45/45 46/46/46
f 50/50/50 49/49/49 51/51/51
f 52/52/52 49/49/49 50/50/50
f 54/54/54 53/53/53 55/55/55
f 56/56/56 53/53/53 54/54/54
f 58/58/58 57/57/57 59/59/59
f 60/60/60 57/57/57 58/58/58
f 62/62/62 61/61/61 63/63/63
f 64/64/64 61/61/61 62/62/62
f 66/66/66 65/65/65 67/67/67
f 68/68/68 65/65/65 66/66/66
f 70/70/70 69/69/69 71/71/71
f 72/72/72 69/69/69 70/70/70
f 74/74/74 73/73/73 75/75/75
f 76/76/76 73/73/73 74/74/74
f 78/78/78 77/77/77 79/79/79
f 80/80/80 77/77/77 78/78/78
f 82/82/82 81/81/81 83/83/83
f 84/84/84 81/81/81 82/82/82
f 86/86/86 85/85/85 87/87/87
f 88/88/88 85/85/85 86/86/86
f 90/90/90 89/89/89 91/91/91
f 92/92/92 89/89/89 90/90/90
f 94/94/94 93/93/93 95/95/95
f 96/96/96 93/93/93 94/94/94
