v 0.225 0.6 0.001
v 0.3 1 0.001
v 0.3 -1 0.001
v 0.225 -0.6 0.001
v -0.3 1 0.001
v -0.225 0.6 0.001
v -0.3 -1 0.001
v -0.225 -0.6 0.001
v 0.3 1 0.025
v 0.3 0.9825 0.0175
v -0.3 0.9825 0.0175
v -0.3 1 0.0245
v -0.3 0.975 0
v 0.3 0.975 0
v -0.3 0.9825 -0.0175
v 0.3 0.9825 -0.0175
v 0.3 1.0175 0.0175
v 0.3 1 0.0250
v -0.3 1 0.025
v -0.3 1.0175 0.0175
v 0.3 1.025 0
v -0.3 1.025 0
v 0.3 1.0175 -0.0175
v -0.3 1.0175 -0.0175
v 0.3 1 -0.0245
v -0.3 1 -0.025
v 0.3 0.9825 -0.0175
v 0.3 1 -0.025
v -0.3 1 -0.025
v -0.3 0.9825 -0.0175
v 0.3 -1 0.025
v 0.3 -1.0175 0.0175
v -0.3 -1.0175 0.0175
v -0.3 -1 0.025
v -0.3 -1.025 0
v 0.3 -1.025 0
v -0.3 -1.0175 -0.0175
v 0.3 -1.0175 -0.0175
v 0.3 -0.9825 0.0175
v 0.3 -1 0.025
v -0.3 -1 0.025
v -0.3 -0.9825 0.0175
v 0.3 -0.975 0
v -0.3 -0.975 0
v 0.3 -0.9825 -0.0175
v -0.3 -0.9825 -0.0175
v 0.3 -1 -0.025
v -0.3 -1 -0.025
v 0.3 -1.0175 -0.0175
v 0.3 -1 -0.025
v -0.3 -1 -0.025
v -0.3 -1.0175 -0.0175
v -0.3 -1 0
v -0.3 -0.9825 0.0175
v -0.3 -1 0.025
v -0.3 -1.0175 0.0175
v -0.3 -1.025 0
v -0.3 -1.0175 -0.0175
v -0.3 -1 -0.025
v -0.3 -0.9825 -0.0175
v -0.3 -0.975 0
v 0.3 -1 0
v 0.3 -1.0175 0.0175
v 0.3 -1 0.025
v 0.3 -1.025 0
v 0.3 -1.0175 -0.0175
v 0.3 -1 -0.025
v 0.3 -0.9825 -0.0175
v 0.3 -0.975 0
v 0.3 -0.9825 0.0175
v 0.3 1 0
v 0.3 0.9825 0.0175
v 0.3 1 0.0250
v 0.3 0.975 0
v 0.3 0.9825 -0.0175
v 0.3 1 -0.025
v 0.3 1.0175 -0.0175
v 0.3 1.025 0
v 0.3 1.0175 0.0175
v -0.3 1 0
v -0.3 1.0175 0.0175
v -0.3 1 0.025
v -0.3 0.9825 0.0175
v -0.3 0.975 0
v -0.3 0.9825 -0.0175
v -0.3 1 -0.025
v -0.3 1.0175 -0.0175
v -0.3 1.025 0
v 0.225 0.5 0.001
v 0.225 -0.5 0.001
v -0.225 -0.5 0.001
v -0.225 0.5 0.001
v 0 1.11868 -0.02483571
v 0.1723525 1.022087 0.001
v 0.1733525 1.02376 0.0005978776
v 0 1.120353 -0.025284
v 0 1.119198 -0.02290386
v 0 1.11868 -0.02483571
v 0 1.120353 -0.025284
v 0 1.120871 -0.02335214
v 0.1723525 1.022605 0.002978016
v 0 1.119198 -0.02290386
v 0 1.120871 -0.02335214
v 0.1733525 1.024278 0.00252973
v 0.1723525 1.022087 0.001
v 0.1723525 1.022605 0.002978016
v 0.1733525 1.024278 0.00252973
v 0.1733525 1.02376 0.0005978776
v 0 1.119198 -0.02290386
v 0.1723525 1.022605 0.002978016
v 0.1723525 1.022087 0.001
v 0 1.11868 -0.02483571
v 0 1.120353 -0.025284
v 0.1733525 1.02376 0.0005978776
v 0.1733525 1.024278 0.00252973
v 0 1.120871 -0.02335214
v 0 1.120353 -0.025284
v -0.1733535 1.02376 0.0005978354
v -0.1723535 1.022087 0.001
v 0 1.11868 -0.02483571
v 0 1.120871 -0.02335214
v 0 1.120353 -0.025284
v 0 1.11868 -0.02483571
v 0 1.119198 -0.02290386
v -0.1733535 1.024278 0.002529689
v 0 1.120871 -0.02335214
v 0 1.119198 -0.02290386
v -0.1723535 1.022605 0.002977976
v -0.1733535 1.02376 0.0005978354
v -0.1733535 1.024278 0.002529689
v -0.1723535 1.022605 0.002977976
v -0.1723535 1.022087 0.001
v 0 1.120871 -0.02335214
v -0.1733535 1.024278 0.002529689
v -0.1733535 1.02376 0.0005978354
v 0 1.120353 -0.025284
v 0 1.11868 -0.02483571
v -0.1723535 1.022087 0.001
v -0.1723535 1.022605 0.002977976
v 0 1.119198 -0.02290386
v 0.225 -0.5 0.001
v 0.225 -0.6 0.001
v -0.225 -0.6 0.001
v -0.225 -0.5 0.001
v 0.225 0.6 0.001
v 0.225 0.5 0.001
v -0.225 0.5 0.001
v -0.225 0.6 0.001


vn 0 0 1
vn 0 0 1
vn 0 0 1
vn 0 0 1
vn 0 0 1
vn 0 0 1
vn 0 0 1
vn 0 0 1
vn -0 -0.1414219 0.9899496
vn -0 -0.794358 0.6074499
vn -0 -0.6074504 0.7943578
vn -0 0.1414207 0.9899497
vn 0 -0.9899495 0.1414212
vn 0 -0.9899495 -0.1414212
vn 0 -0.794358 -0.6074499
vn 0 -0.6074504 -0.7943578
vn -0 0.6074504 0.7943577
vn -0 -0.1414219 0.9899496
vn -0 0.1414207 0.9899497
vn -0 0.794359 0.6074486
vn 0 0.9899497 0.1414201
vn 0 0.9899497 -0.1414201
vn 0 0.794359 -0.6074486
vn 0 0.6074504 -0.7943577
vn 0 0.1414206 -0.9899497
vn 0 -0.1414219 -0.9899496
vn 0 -0.6074504 -0.7943578
vn 0 0.1414206 -0.9899497
vn 0 -0.1414219 -0.9899496
vn 0 -0.794358 -0.6074499
vn -0 -0.1414206 0.9899497
vn -0 -0.794359 0.6074486
vn -0 -0.6074504 0.7943577
vn -0 0.1414219 0.9899496
vn 0 -0.9899497 0.1414201
vn 0 -0.9899497 -0.1414201
vn 0 -0.794359 -0.6074486
vn 0 -0.6074504 -0.7943577
vn -0 0.6074504 0.7943578
vn -0 -0.1414206 0.9899497
vn -0 0.1414219 0.9899496
vn -0 0.794358 0.6074499
vn 0 0.9899495 0.1414212
vn 0 0.9899495 -0.1414212
vn 0 0.794358 -0.6074499
vn 0 0.6074504 -0.7943578
vn 0 0.1414219 -0.9899496
vn 0 -0.1414207 -0.9899497
vn 0 -0.6074504 -0.7943577
vn 0 0.1414219 -0.9899496
vn 0 -0.1414207 -0.9899497
vn 0 -0.794359 -0.6074486
vn -1 0 0
vn -1 0 0
vn -1 0 0
vn -1 0 0
vn -1 0 0
vn -1 0 0
vn -1 0 0
vn -1 0 0
vn -1 0 0
vn 1 0 0
vn 1 0 0
vn 1 0 0
vn 1 0 0
vn 1 0 0
vn 1 0 0
vn 1 0 0
vn 1 0 0
vn 1 0 0
vn 1 0 0
vn 1 0 0
vn 1 0 0
vn 1 0 0
vn 1 0 0
vn 1 0 0
vn 1 0 0
vn 1 0 0
vn 1 0 0
vn -1 0 0
vn -1 0 0
vn -1 0 0
vn -1 0 0
vn -1 0 0
vn -1 0 0
vn -1 0 0
vn -1 0 0
vn -1 0 0
vn 0 0 1
vn 0 0 1
vn 0 0 1
vn 0 0 1
vn 0 -0.2588262 -0.9659241
vn 0 -0.2588235 -0.9659247
vn 0 -0.2588255 -0.9659241
vn 0 -0.2588262 -0.9659241
vn 0 1 0
vn 0 1 0
vn 0.08965588 0.9886253 -0.120756
vn -0.08965476 0.9886253 -0.120756
vn 0 0.2588165 0.9659266
vn 0 0.2588186 0.9659261
vn 0 0.2588185 0.9659261
vn 0 0.2588105 0.9659283
vn 0 1 0
vn 0 1 0
vn 0.2607148 0.9582933 -0.1170554
vn 0.2607154 0.9582914 -0.1170684
vn -0.5018532 -0.835445 0.223998
vn -0.5018532 -0.835445 0.2239979
vn -0.5018532 -0.835445 0.223998
vn -0.5018532 -0.835445 0.2239981
vn 0.08965588 0.9886253 -0.120756
vn 0.2607154 0.9582914 -0.1170684
vn 0.2607148 0.9582933 -0.1170554
vn -0.08965476 0.9886253 -0.120756
vn 0 -0.2588262 -0.9659241
vn 0 -0.2588235 -0.9659247
vn 0 -0.2588255 -0.9659241
vn 0 -0.2588262 -0.9659241
vn -0.08965476 0.9886253 -0.120756
vn 0.08965588 0.9886253 -0.120756
vn 0 1 0
vn 0 1 0
vn 0 0.2588167 0.9659266
vn 0 0.2588185 0.9659261
vn 0 0.2588186 0.9659261
vn 0 0.2588108 0.9659282
vn -0.2607135 0.9582935 -0.1170555
vn -0.2607139 0.9582918 -0.1170685
vn 0 1 0
vn 0 1 0
vn -0.08965476 0.9886253 -0.120756
vn -0.2607139 0.9582918 -0.1170685
vn -0.2607135 0.9582935 -0.1170555
vn 0.08965588 0.9886253 -0.120756
vn 0.501851 -0.8354462 0.2239984
vn 0.501851 -0.8354462 0.2239983
vn 0.501851 -0.8354462 0.2239984
vn 0.501851 -0.8354462 0.2239985
vn 0 0 1
vn 0 0 1
vn 0 0 1
vn 0 0 1
vn 0 0 1
vn 0 0 1
vn 0 0 1
vn 0 0 1


vt 0.875 0.8
vt 1 1
vt 1 0
vt 0.875 0.2
vt 0 1
vt 0.125 0.8
vt 0 0
vt 0.125 0.2
vt 0.075 0
vt 0.05 0
vt 0.05 0.5
vt 0.075 0.5
vt 0.025 0.5
vt 0.025 0
vt 0 0.5
vt 0 0
vt 0.1 0
vt 0.075 0
vt 0.075 0.5
vt 0.1 0.5
vt 0.125 0
vt 0.125 0.5
vt 0.15 0
vt 0.15 0.5
vt 0.175 0
vt 0.175 0.5
vt 0.2 0
vt 0.175 0
vt 0.175 0.5
vt 0.2 0.5
vt 0.075 0
vt 0.05 0
vt 0.05 0.5
vt 0.075 0.5
vt 0.025 0.5
vt 0.025 0
vt 0 0.5
vt 0 0
vt 0.1 0
vt 0.075 0
vt 0.075 0.5
vt 0.1 0.5
vt 0.125 0
vt 0.125 0.5
vt 0.15 0
vt 0.15 0.5
vt 0.175 0
vt 0.175 0.5
vt 0.2 0
vt 0.175 0
vt 0.175 0.5
vt 0.2 0.5
vt 0 0
vt 0 0
vt 0 0
vt 0 0
vt 0 0
vt 0 0
vt 0 0
vt 0 0
vt 0 0
vt 0 0
vt 0 0
vt 0 0
vt 0 0
vt 0 0
vt 0 0
vt 0 0
vt 0 0
vt 0 0
vt 0 0
vt 0 0
vt 0 0
vt 0 0
vt 0 0
vt 0 0
vt 0 0
vt 0 0
vt 0 0
vt 0 0
vt 0 0
vt 0 0
vt 0 0
vt 0 0
vt 0 0
vt 0 0
vt 0 0
vt 0 0
vt 1 1
vt 1 0
vt 0 0
vt 0 1
vt 0 0
vt 0 0
vt 0 0
vt 0 0
vt 0 0
vt 0 0
vt 0 0
vt 0 0
vt 0 0
vt 0 0
vt 0 0
vt 0 0
vt 0 0
vt 0 0
vt 0 0
vt 0 0
vt 0 0
vt 0 0
vt 0 0
vt 0 0
vt 0 0
vt 0 0
vt 0 0
vt 0 0
vt 0 0
vt 0 0
vt 0 0
vt 0 0
vt 0 0
vt 0 0
vt 0 0
vt 0 0
vt 0 0
vt 0 0
vt 0 0
vt 0 0
vt 0 0
vt 0 0
vt 0 0
vt 0 0
vt 0 0
vt 0 0
vt 0 0
vt 0 0
vt 0 0
vt 0 0
vt 0 0
vt 0 0
vt 1 1
vt 1 0
vt 0 0
vt 0 1
vt 1 1
vt 1 0
vt 0 0
vt 0 1


g DojoScrollBackground

f 2/2/2 1/1/1 3/3/3
f 1/1/1 4/4/4 3/3/3
f 2/2/2 5/5/5 1/1/1
f 5/5/5 6/6/6 1/1/1
f 5/5/5 7/7/7 6/6/6
f 7/7/7 3/3/3 4/4/4
f 7/7/7 8/8/8 6/6/6
f 8/8/8 7/7/7 4/4/4
f 10/10/10 9/9/9 11/11/11
f 12/12/12 11/11/11 9/9/9
f 11/11/11 13/13/13 10/10/10
f 14/14/14 10/10/10 13/13/13
f 15/15/15 14/14/14 13/13/13
f 16/16/16 14/14/14 15/15/15
f 18/18/18 17/17/17 19/19/19
f 19/19/19 17/17/17 20/20/20
f 17/17/17 21/21/21 20/20/20
f 22/22/22 20/20/20 21/21/21
f 21/21/21 23/23/23 22/22/22
f 24/24/24 22/22/22 23/23/23
f 23/23/23 25/25/25 24/24/24
f 26/26/26 24/24/24 25/25/25
f 28/28/28 27/27/27 29/29/29
f 30/30/30 29/29/29 27/27/27
f 32/32/32 31/31/31 33/33/33
f 34/34/34 33/33/33 31/31/31
f 33/33/33 35/35/35 32/32/32
f 36/36/36 32/32/32 35/35/35
f 37/37/37 36/36/36 35/35/35
f 38/38/38 36/36/36 37/37/37
f 40/40/40 39/39/39 41/41/41
f 41/41/41 39/39/39 42/42/42
f 39/39/39 43/43/43 42/42/42
f 44/44/44 42/42/42 43/43/43
f 43/43/43 45/45/45 44/44/44
f 46/46/46 44/44/44 45/45/45
f 45/45/45 47/47/47 46/46/46
f 48/48/48 46/46/46 47/47/47
f 50/50/50 49/49/49 51/51/51
f 52/52/52 51/51/51 49/49/49
f 54/54/54 53/53/53 55/55/55
f 55/55/55 53/53/53 56/56/56
f 56/56/56 53/53/53 57/57/57
f 57/57/57 53/53/53 58/58/58
f 58/58/58 53/53/53 59/59/59
f 59/59/59 53/53/53 60/60/60
f 60/60/60 53/53/53 61/61/61
f 61/61/61 53/53/53 54/54/54
f 63/63/63 62/62/62 64/64/64
f 65/65/65 62/62/62 63/63/63
f 66/66/66 62/62/62 65/65/65
f 67/67/67 62/62/62 66/66/66
f 68/68/68 62/62/62 67/67/67
f 69/69/69 62/62/62 68/68/68
f 70/70/70 62/62/62 69/69/69
f 64/64/64 62/62/62 70/70/70
f 72/72/72 71/71/71 73/73/73
f 74/74/74 71/71/71 72/72/72
f 75/75/75 71/71/71 74/74/74
f 76/76/76 71/71/71 75/75/75
f 77/77/77 71/71/71 76/76/76
f 78/78/78 71/71/71 77/77/77
f 79/79/79 71/71/71 78/78/78
f 73/73/73 71/71/71 79/79/79
f 81/81/81 80/80/80 82/82/82
f 82/82/82 80/80/80 83/83/83
f 83/83/83 80/80/80 84/84/84
f 84/84/84 80/80/80 85/85/85
f 85/85/85 80/80/80 86/86/86
f 86/86/86 80/80/80 87/87/87
f 87/87/87 80/80/80 88/88/88
f 88/88/88 80/80/80 81/81/81


g DojoScrollForeground

f 90/90/90 89/89/89 91/91/91
f 89/89/89 92/92/92 91/91/91


g DojoScrollHandler

f 94/94/94 93/93/93 95/95/95
f 93/93/93 96/96/96 95/95/95
f 98/98/98 97/97/97 99/99/99
f 97/97/97 100/100/100 99/99/99
f 102/102/102 101/101/101 103/103/103
f 101/101/101 104/104/104 103/103/103
f 106/106/106 105/105/105 107/107/107
f 105/105/105 108/108/108 107/107/107
f 110/110/110 109/109/109 111/111/111
f 109/109/109 112/112/112 111/111/111
f 114/114/114 113/113/113 115/115/115
f 113/113/113 116/116/116 115/115/115
f 118/118/118 117/117/117 119/119/119
f 117/117/117 120/120/120 119/119/119
f 122/122/122 121/121/121 123/123/123
f 121/121/121 124/124/124 123/123/123
f 126/126/126 125/125/125 127/127/127
f 125/125/125 128/128/128 127/127/127
f 130/130/130 129/129/129 131/131/131
f 129/129/129 132/132/132 131/131/131
f 134/134/134 133/133/133 135/135/135
f 133/133/133 136/136/136 135/135/135
f 138/138/138 137/137/137 139/139/139
f 137/137/137 140/140/140 139/139/139


g DojoScrollSeparators

f 142/142/142 141/141/141 143/143/143
f 141/141/141 144/144/144 143/143/143
f 146/146/146 145/145/145 147/147/147
f 145/145/145 148/148/148 147/147/147
