#
# Simple Card
#
# Copyleft Guillermo Calvo 2013
#

o MySimpleCard

mtllib SimpleCardMaterials.mtl

g SimpleCard

v  0.30 -0.5 -0.50 0.752941 0.752941 0.752941
v -0.30  0.5 -0.50 0.752941 0.752941 0.752941
v -0.30 -0.5 -0.50 0.752941 0.752941 0.752941
v  0.30  0.5 -0.50 0.752941 0.752941 0.752941
v  0.40 -0.5 -0.45 0.752941 0.752941 0.752941
v  0.40  0.5 -0.45 0.752941 0.752941 0.752941
v  0.45 -0.5 -0.40 0.752941 0.752941 0.752941
v  0.45  0.5 -0.40 0.752941 0.752941 0.752941
v  0.50 -0.5 -0.30 0.752941 0.752941 0.752941
v  0.50  0.5 -0.30 0.752941 0.752941 0.752941
v  0.50 -0.5  0.30 0.752941 0.752941 0.752941
v  0.50  0.5  0.30 0.752941 0.752941 0.752941
v  0.45 -0.5  0.40 0.752941 0.752941 0.752941
v  0.45  0.5  0.40 0.752941 0.752941 0.752941
v  0.40 -0.5  0.45 0.752941 0.752941 0.752941
v -0.50 -0.5  0.30 0.752941 0.752941 0.752941
v -0.50 -0.5 -0.30 0.752941 0.752941 0.752941
v -0.50  0.5 -0.30 0.752941 0.752941 0.752941
v -0.45  0.5 -0.40 0.752941 0.752941 0.752941
v -0.40 -0.5 -0.45 0.752941 0.752941 0.752941
v -0.40  0.5 -0.45 0.752941 0.752941 0.752941
v -0.40 -0.5  0.45 0.752941 0.752941 0.752941
v -0.30 -0.5  0.50 0.752941 0.752941 0.752941
v  0.30 -0.5  0.50 0.752941 0.752941 0.752941
v -0.45 -0.5  0.40 0.752941 0.752941 0.752941
v -0.45 -0.5 -0.40 0.752941 0.752941 0.752941
v  0.40  0.5  0.45 0.752941 0.752941 0.752941
v  0.30  0.5  0.50 0.752941 0.752941 0.752941
v -0.30  0.5  0.50 0.752941 0.752941 0.752941
v -0.40  0.5  0.45 0.752941 0.752941 0.752941
v -0.45  0.5  0.40 0.752941 0.752941 0.752941
v -0.50  0.5  0.30 0.752941 0.752941 0.752941

vn  0.447214 -1 -2.894427
vn -0.447214  1 -2.894427
vn -0.894427 -2 -2.788854
vn  0.894427  2 -2.788854
vn  1.601534 -3 -2.495961
vn  1.861427  3 -2.308641
vn  2.308641 -3 -1.861427
vn  2.495961  3 -1.601534
vn  2.788854 -3 -0.894427
vn  2.894427  3 -0.447214
vn  2.894427 -3  0.447214
vn  2.788854  3  0.894427
vn  2.495961 -3  1.601534
vn  2.308641  3  1.861427
vn  1.861427 -3  2.308641
vn -2.788854 -3  0.894427
vn -2.894427 -3 -0.447214
vn -2.788854  3 -0.894427
vn -2.308641  3 -1.861427
vn -1.861427 -3 -2.308641
vn -1.601534  3 -2.495961
vn -1.601534 -3  2.495961
vn -0.447214 -1  2.894427
vn  0.894427 -2  2.788854
vn -2.308641 -3  1.861427
vn -2.495961 -3 -1.601534
vn  1.601534  3  2.495961
vn  0.447214  1  2.894427
vn -0.894427  2  2.788854
vn -1.861427  3  2.308641
vn -2.495961  3  1.601534
vn -2.894427  3  0.447214

vt 0.00 0.00
vt 0.80 0.00
vt 0.90 0.05
vt 0.20 0.00
vt 0.10 0.05
vt 0.95 0.10
vt 0.05 0.10
vt 1.00 0.20
vt 0.00 0.20
vt 1.00 0.80
vt 0.00 0.80
vt 0.95 0.90
vt 0.05 0.90
vt 0.90 0.95
vt 0.10 0.95
vt 0.80 1.00
vt 0.20 1.00

# EDGE
usemtl EDGE
f 2/1/2 1/1/1 3/1/3
f 4/1/4 1/1/1 2/1/2
f 4/1/4 5/1/5 1/1/1
f 6/1/6 5/1/5 4/1/4
f 6/1/6 7/1/7 5/1/5
f 8/1/8 7/1/7 6/1/6
f 8/1/8 9/1/9 7/1/7
f 10/1/10 9/1/9 8/1/8
f 10/1/10 11/1/11 9/1/9
f 12/1/12 11/1/11 10/1/10
f 12/1/12 13/1/13 11/1/11
f 14/1/14 13/1/13 12/1/12
f 14/1/14 15/1/15 13/1/13
f 27/1/27 15/1/15 14/1/14
f 27/1/27 24/1/24 15/1/15
f 28/1/28 24/1/24 27/1/27
f 28/1/28 23/1/23 24/1/24
f 29/1/29 23/1/23 28/1/28
f 29/1/29 22/1/22 23/1/23
f 30/1/30 22/1/22 29/1/29
f 30/1/30 25/1/25 22/1/22
f 31/1/31 25/1/25 30/1/30
f 31/1/31 16/1/16 25/1/25
f 32/1/32 16/1/16 31/1/31
f 32/1/32 17/1/17 16/1/16
f 18/1/18 17/1/17 32/1/32
f 18/1/18 26/1/26 17/1/17
f 19/1/19 26/1/26 18/1/18
f 19/1/19 20/1/20 26/1/26
f 21/1/21 20/1/20 19/1/19
f 21/1/21 3/1/3 20/1/20
f 2/1/2 3/1/3 21/1/21

# BOTTOM
usemtl BOTTOM
f 23/2/23 22/3/22 25/6/25 16/8/16 17/10/17 26/12/26 20/14/20 3/16/3 1/17/1 5/15/5 7/13/7 9/11/9 11/9/11 13/7/13 15/5/15 24/4/24

# TOP
usemtl TOP
f 28/2/28 27/3/27 14/6/14 12/8/12 10/10/10 8/12/8 6/14/6 4/16/4 2/17/2 21/15/21 19/13/19 18/11/18 32/9/32 31/7/31 30/5/30 29/4/29
